<?xml version="1.0" encoding="UTF-8" standalone="no"?>
<!-- Created with Inkscape (http://www.inkscape.org/) -->

<svg
   xmlns:dc="http://purl.org/dc/elements/1.1/"
   xmlns:cc="http://creativecommons.org/ns#"
   xmlns:rdf="http://www.w3.org/1999/02/22-rdf-syntax-ns#"
   xmlns:svg="http://www.w3.org/2000/svg"
   xmlns="http://www.w3.org/2000/svg"
   xmlns:sodipodi="http://sodipodi.sourceforge.net/DTD/sodipodi-0.dtd"
   xmlns:inkscape="http://www.inkscape.org/namespaces/inkscape"
   width="962.09375"
   height="366.65625"
   id="svg2"
   version="1.1"
   inkscape:version="0.48.1 r9760"
   sodipodi:docname="raho.svg">
  <defs
     id="defs4" />
  <sodipodi:namedview
     id="base"
     pagecolor="#ffffff"
     bordercolor="#666666"
     borderopacity="1.0"
     inkscape:pageopacity="1"
     inkscape:pageshadow="2"
     inkscape:zoom="0.7"
     inkscape:cx="537.01642"
     inkscape:cy="65.802298"
     inkscape:document-units="px"
     inkscape:current-layer="layer1"
     showgrid="false"
     fit-margin-top="0"
     fit-margin-left="0"
     fit-margin-right="0"
     fit-margin-bottom="0"
     inkscape:window-width="1016"
     inkscape:window-height="694"
     inkscape:window-x="0"
     inkscape:window-y="43"
     inkscape:window-maximized="1" />
  <metadata
     id="metadata7">
    <rdf:RDF>
      <cc:Work
         rdf:about="">
        <dc:format>image/svg+xml</dc:format>
        <dc:type
           rdf:resource="http://purl.org/dc/dcmitype/StillImage" />
        <dc:title />
      </cc:Work>
    </rdf:RDF>
  </metadata>
  <g
     inkscape:label="Layer 1"
     inkscape:groupmode="layer"
     id="layer1"
     transform="translate(-23.03125,-350.78125)">
    <rect
       style="fill:#ffffff;stroke:#ffffff;stroke-width:3.54333544;stroke-miterlimit:4;stroke-dasharray:none"
       id="rect3005"
       width="958.57141"
       height="363.11322"
       x="24.797388"
       y="352.54181" />
    <path
       style="fill:#800080;stroke:#800080;stroke-width:2.35499191;stroke-miterlimit:4;stroke-dasharray:none"
       id="path3059"
       d="m 257.222,520.85091 c 0.97828,-1.3187 1.59206,-2.8777 2.42115,-4.29445 0.51451,-0.96096 1.30498,-1.62384 2.07977,-2.32114 0.27433,-0.20945 0.58415,-0.45496 0.87387,-0.63601 2.79667,-1.74759 5.67339,-3.35473 8.4041,-5.21703 2.37291,-1.61828 -4.87477,3.01128 -7.32958,4.48423 -0.1963,0.11778 0.35637,-0.29614 0.55104,-0.41695 2.81771,-1.74857 5.65571,-3.45974 8.48356,-5.18961 1.26462,-0.42419 2.44706,-1.05749 3.74888,-1.35887 1.21028,-0.29042 2.45996,-0.29906 3.69463,-0.33095 1.14944,-0.20146 2.10065,0.25313 3.17549,0.56547 1.23278,0.55284 2.19048,1.51022 3.22362,2.37805 1.12112,0.93624 2.17968,1.94886 3.22975,2.97291 0.93916,1.10177 1.57897,2.41184 2.28032,3.68378 0.66737,1.18788 1.18638,2.44225 1.73294,3.69705 0.53047,1.49256 1.00894,3.00989 1.46984,4.53129 0.31685,1.54336 0.78711,3.03962 1.1636,4.56663 0.32227,1.48731 0.39543,3.01888 0.43222,4.53975 0.11041,1.69176 -0.0372,3.33159 -0.36868,4.98229 -0.25106,1.8264 -0.72351,3.60215 -1.06234,5.4098 -0.44977,1.63325 -0.82211,3.29807 -1.37385,4.89713 -0.44504,1.63988 -1.19807,3.13216 -1.97629,4.61204 -0.82137,1.443 -1.50933,2.96366 -2.32697,4.40863 -0.82479,1.34793 -1.77452,2.602 -2.68273,3.88569 -0.87303,1.2766 -1.85487,2.46005 -2.77689,3.69537 -2.85082,3.76042 -7.47203,5.56458 -11.25256,7.84928 -2.3125,0.71899 -4.62241,0.10516 -6.91476,-0.37429 0,0 7.42412,-5.5297 7.42412,-5.5297 l 0,0 c 2.23438,0.4186 4.51971,0.86919 6.66727,-0.1895 -14.03674,8.74654 -6.69176,4.8707 -4.36928,2.09023 0.92739,-1.23042 1.84441,-2.45076 2.81158,-3.63918 0.80466,-1.34099 1.81326,-2.5501 2.71049,-3.81961 0.79209,-1.46503 1.57056,-2.92874 2.34231,-4.40814 0.79518,-1.41241 1.6008,-2.85784 2.02013,-4.45452 0.5629,-1.56817 0.93216,-3.17657 1.47129,-4.75845 0.29879,-1.82094 0.81975,-3.58159 1.02745,-5.41814 0.31513,-1.59375 0.64337,-3.12466 0.45465,-4.77309 -0.0298,-1.45439 -0.0564,-2.91948 -0.33836,-4.3487 -0.33555,-1.52145 -0.85802,-2.9787 -1.1266,-4.51646 -0.43669,-1.48261 -0.92133,-2.95096 -1.42612,-4.40485 -0.5564,-1.21796 -1.02272,-2.47355 -1.69263,-3.63085 -0.64025,-1.19675 -1.2518,-2.4156 -2.14067,-3.4317 -1.02299,-1.02318 -2.08698,-1.99857 -3.19647,-2.91419 -0.93094,-0.81307 -1.85763,-1.651 -3.03014,-2.04001 -1.00504,-0.30898 -1.96861,-0.43543 -3.0204,-0.31829 -1.19451,0.0435 -2.3934,0.13451 -3.54547,0.5005 -1.23166,0.43098 -2.45105,0.93898 -3.62572,1.52032 2.41441,-1.50206 4.82544,-3.01031 7.24322,-4.50619 0.19104,-0.1182 -0.37297,0.25249 -0.56273,0.37299 -2.7876,1.76993 -5.66958,3.3797 -8.36926,5.29821 -2.34912,1.66939 4.866,-3.05396 7.31595,-4.54969 0.30374,-0.18544 -1.06019,0.82213 -0.8735,0.62133 -0.83439,0.53611 -1.5912,1.2001 -2.21272,2.01648 -0.95981,1.33751 -1.55461,2.9009 -2.39869,4.32543 0,0 -8.45983,3.88568 -8.45983,3.88568 z"
       inkscape:connector-curvature="0" />
    <path
       style="fill:#000080;stroke:#000080;stroke-width:2.35499191;stroke-miterlimit:4;stroke-dasharray:none"
       id="path3039"
       d="m 31.689209,690.44926 c 1.885833,-1.57809 3.506663,-3.50518 5.062355,-5.44217 2.972682,-3.64693 5.469562,-7.70691 7.980846,-11.71955 4.303181,-7.1746 8.6622,-14.30617 12.732836,-21.63442 5.716046,-10.48725 11.091335,-21.18134 16.415081,-31.89901 6.116098,-12.53983 11.80696,-25.31189 17.174063,-38.23379 5.389216,-13.12244 10.18952,-26.51102 14.90148,-39.92302 4.70109,-13.4484 8.61023,-27.17805 12.16048,-41.014 3.52627,-13.58785 6.35706,-27.36265 9.49831,-41.05347 2.83202,-12.13749 5.59563,-24.28912 8.11351,-36.50542 1.84909,-8.87891 3.61052,-17.78147 4.85607,-26.78168 0.73412,-4.78967 1.35112,-9.59768 1.65718,-14.44085 0.0884,-1.70363 0.12299,-3.41347 0.0684,-5.1192 -0.25521,-5.44224 -0.64128,-0.99491 12.11204,-8.03233 0.0953,-0.0525 0.75499,1.24381 0.83623,1.39618 0.70775,1.77341 1.22858,3.63855 1.77238,5.47767 1.22866,3.59604 2.13561,7.28061 2.94079,11.00591 1.09101,6.37814 2.27093,12.7367 3.34145,19.1188 1.41088,8.53233 2.96403,17.03801 4.72697,25.49562 2.18122,9.91101 4.24913,19.84918 6.45044,29.75512 2.20567,10.59079 4.87424,21.0544 7.63795,31.49155 2.87871,11.16903 6.30486,22.16287 9.71843,33.1554 3.97554,11.91873 7.84122,23.87865 11.79363,35.80597 3.93947,11.75215 8.35034,23.30993 13.04035,34.74165 4.8037,11.16916 9.68803,22.29724 15.1536,33.11813 4.56472,9.52121 9.93916,18.54161 15.55003,27.38979 4.46903,6.94375 9.5734,13.37456 14.85221,19.62579 3.89631,4.58839 8.01787,8.9466 12.28535,13.14003 2.45745,1.8535 4.6241,4.5192 7.51862,5.61615 0,0 -11.46154,8.06486 -11.46154,8.06486 l 0,0 c -2.69727,-1.73045 -5.02963,-4.03172 -7.39197,-6.22866 -4.1896,-4.3045 -8.25079,-8.75038 -12.09184,-13.4121 -5.22942,-6.36559 -10.29858,-12.88436 -14.71012,-19.93302 -5.56384,-8.93318 -10.83665,-18.07348 -15.37469,-27.65342 -5.40701,-10.89295 -10.35269,-22.02697 -15.13983,-33.24332 -4.73202,-11.44944 -9.12156,-23.0538 -13.07975,-34.83436 -3.89334,-11.95207 -7.79781,-23.89969 -11.8684,-35.78495 -3.45945,-10.98905 -6.91729,-21.98355 -9.85262,-33.14827 -2.76398,-10.45022 -5.49778,-20.90905 -7.71067,-31.51215 -2.22597,-9.89044 -4.33564,-19.80866 -6.57656,-29.69538 -1.87438,-8.42317 -3.42856,-16.92256 -4.98073,-25.41906 -1.12179,-6.31335 -2.37956,-12.59355 -3.58992,-18.88815 -0.8699,-3.64934 -1.81473,-7.26676 -3.14494,-10.76202 -0.53632,-1.70671 -1.09195,-3.42366 -1.77975,-5.06511 -0.1167,-0.18465 -0.14071,-0.50497 -0.34343,-0.55869 -0.0419,-0.0111 -0.0181,0.16036 0.0189,0.13666 12.10526,-7.74518 11.82269,-12.46708 11.69043,-7.069 -0.0507,1.79285 -0.13589,3.58275 -0.28331,5.3702 -0.44789,4.96041 -1.2217,9.87239 -2.06166,14.77293 -1.44208,9.10118 -3.30439,18.1157 -5.28521,27.09951 -2.61841,12.26481 -5.47322,24.46664 -8.35775,36.66291 -3.2041,13.70047 -6.04443,27.49878 -9.55441,41.11704 -3.54021,13.86773 -7.42661,27.63351 -12.10928,41.11908 -4.69641,13.43673 -9.52239,26.83388 -14.87146,39.99275 -5.35599,12.91081 -10.993969,25.69013 -17.025236,38.25965 -5.23695,10.65094 -10.463705,21.31297 -16.027757,31.7752 -3.899717,7.28691 -8.150444,14.3383 -12.258484,21.49235 -2.405137,3.97957 -4.769756,8.03244 -7.564867,11.71213 -1.509963,1.953 -3.086239,3.82332 -4.72446,5.65515 0,0 -12.839807,5.44239 -12.839807,5.44239 z"
       inkscape:connector-curvature="0" />
    <path
       style="fill:#000080;stroke:#000080;stroke-width:2.35499191;stroke-miterlimit:4;stroke-dasharray:none"
       id="path3043"
       d="m 53.302256,577.54187 c 1.718958,1.92264 3.873769,2.9969 6.191491,3.85118 3.952324,1.19016 8.136086,0.85989 12.181747,0.50771 6.150463,-0.58269 12.279862,-1.44239 18.398905,-2.32549 7.821491,-1.13348 15.614871,-2.44201 23.386701,-3.91234 9.25442,-1.71799 18.3378,-4.31785 27.40926,-6.88574 10.33837,-2.97791 20.55612,-6.38794 30.8226,-9.62686 10.98322,-3.42793 21.82198,-7.38834 32.5345,-11.67615 10.67531,-4.32378 21.19059,-9.0886 31.68907,-13.87607 9.48533,-4.19126 18.72767,-8.9686 27.93997,-13.7926 3.39315,-1.85447 4.29998,-2.31336 7.59061,-4.25248 1.15003,-0.67768 4.57359,-2.76118 3.42891,-2.07331 -2.66023,1.59861 -5.26972,3.29639 -7.97556,4.80553 -1.01939,0.56855 1.95625,-1.29259 2.90913,-1.97981 0.91809,-0.66214 1.80115,-1.37785 2.70172,-2.06677 3.32698,-2.95201 1.71912,-1.41676 4.8248,-4.60426 0,0 12.10806,-5.33676 12.10806,-5.33676 l 0,0 c -3.06903,3.3178 -1.47684,1.71554 -4.77817,4.80493 -9.51695,7.60138 -20.22282,13.3632 -30.76171,19.17242 -9.15854,4.749 -18.36016,9.41602 -27.77528,13.56534 -10.49786,4.76777 -21.01252,9.51159 -31.69227,13.8006 -10.75713,4.25373 -21.62707,8.20983 -32.63934,11.64887 -10.29596,3.28775 -20.56531,6.66707 -30.93887,9.67319 -9.14291,2.60493 -18.30315,5.20769 -27.63717,6.92772 -7.840776,1.49949 -15.705841,2.81797 -23.593436,4.00617 -6.204208,0.90211 -12.410453,1.83948 -18.64999,2.41701 -4.249108,0.30036 -8.620111,0.62631 -12.724598,-0.83937 -2.485979,-1.00775 -4.758965,-2.29297 -6.716186,-4.2483 0,0 11.765106,-7.68436 11.765106,-7.68436 z"
       inkscape:connector-curvature="0" />
    <path
       style="fill:#800080;stroke:#800080;stroke-width:2.35499191;stroke-miterlimit:4;stroke-dasharray:none"
       id="path3053"
       d="m 261.70559,499.65654 c 1.72457,2.96589 2.90892,6.2191 3.93389,9.51758 1.75195,5.62436 3.24266,11.31688 4.52886,17.07997 1.56098,7.27341 2.34014,14.67197 2.80023,22.10429 0.57049,7.96154 -0.10712,15.9047 -0.93346,23.81085 -0.84678,7.88291 -2.4402,15.63973 -3.86365,23.41908 -1.14824,7.20977 -3.2226,14.16955 -5.39357,21.0868 -1.64088,4.95626 -3.12967,9.96827 -4.84088,14.89809 -0.41888,1.37055 -1.00906,2.64466 -1.68744,3.884 0,0 -8.34349,3.8991 -8.34349,3.8991 l 0,0 c 0.80165,-1.16219 1.43755,-2.3863 1.89078,-3.75695 1.85029,-4.92596 3.35078,-9.98845 5.06777,-14.96721 2.20366,-6.89138 4.34899,-13.81384 5.5108,-21.00979 1.42231,-7.76361 3.05566,-15.49497 3.91308,-23.36132 0.82708,-7.85428 1.55286,-15.74366 0.98593,-23.65615 -0.4528,-7.37413 -1.22838,-14.71146 -2.80995,-21.92067 -1.29648,-5.71856 -2.83392,-11.3531 -4.64668,-16.91263 -1.04685,-3.20464 -2.20865,-6.41606 -4.06803,-9.2003 0,0 7.95581,-4.91474 7.95581,-4.91474 z"
       inkscape:connector-curvature="0" />
    <path
       style="fill:#0000ff;stroke:#0000ff;stroke-width:2.16034436;stroke-miterlimit:4;stroke-dasharray:none"
       id="path3125"
       d="m 804.8959,377.86214 c 2.09329,1.21593 4.29377,2.22057 6.37447,3.4595 2.4496,1.44379 4.43669,3.40281 6.21061,5.58648 2.39332,3.21385 3.89479,6.95514 5.35127,10.64896 1.91506,5.24937 2.92264,10.75274 3.68158,16.26578 0.75283,7.06441 0.79513,14.17654 0.83727,21.27238 0.0976,8.40274 -0.47366,16.79421 -1.19033,25.16154 -1.01529,9.45694 -2.21898,18.8948 -3.55619,28.31241 -1.46423,10.02477 -3.64252,19.9295 -5.58364,29.87044 -2.06333,10.23042 -4.45543,20.39269 -7.16247,30.47385 -2.50416,9.98736 -5.76059,19.75774 -8.88664,29.56321 -3.02457,9.23921 -6.1211,18.45765 -9.31759,27.64016 -2.97016,8.80553 -6.5841,17.35608 -10.43611,25.81106 -3.74956,7.87861 -7.75722,15.63014 -11.97251,23.2726 -3.57003,6.47535 -7.3564,12.82627 -11.18237,19.15475 -2.55372,4.13465 -5.30459,8.14966 -7.79691,12.32124 -1.02952,1.70574 -2.0386,3.41591 -3.1696,5.05616 -2.16325,3.21841 -13.63732,9.8685 -12.0682,5.03659 0,0 11.84677,-5.6789 11.84677,-5.6789 l 0,0 c -0.57366,4.89665 0.062,0.69022 -12.16736,6.27367 -0.0816,0.0372 -0.0209,-0.19521 0.035,-0.26495 0.0743,-0.0927 0.20952,-0.11385 0.31427,-0.17077 1.19809,-1.69184 2.44495,-3.33198 3.52355,-5.11171 2.55529,-4.25784 5.4612,-8.2997 8.13562,-12.48398 3.93157,-6.33019 7.78458,-12.70511 11.42678,-19.20464 4.25023,-7.62933 8.32143,-15.35437 12.09475,-23.22822 3.89827,-8.42093 7.5501,-16.94058 10.52858,-25.73135 3.24049,-9.18291 6.33935,-18.41515 9.41971,-27.65162 3.13983,-9.79604 6.425,-19.55333 8.94358,-29.53205 2.74812,-10.04319 5.09996,-20.19046 7.18425,-30.38913 1.90803,-9.91813 4.09056,-19.79274 5.5494,-29.78889 1.34381,-9.37495 2.46717,-18.78076 3.47817,-28.19623 0.66579,-8.31065 1.24686,-16.64328 1.08489,-24.98574 -0.0859,-7.01876 -0.13464,-14.0578 -0.94706,-21.03954 -0.75595,-5.40155 -1.79309,-10.77849 -3.69409,-15.91412 -1.46282,-3.5475 -2.97608,-7.13915 -5.36565,-10.18954 -1.72782,-2.0333 -3.64855,-3.85794 -5.99196,-5.19207 -2.13394,-1.2128 -4.36912,-2.23255 -6.54819,-3.36246 0,0 11.01635,-7.06487 11.01635,-7.06487 z"
       inkscape:connector-curvature="0" />
    <path
       style="fill:#0000ff;stroke:#0000ff;stroke-width:2.27556586;stroke-miterlimit:4;stroke-dasharray:none"
       id="path3127"
       d="m 789.63519,435.46982 c 1.03334,-2.22268 2.40105,-4.18915 3.75647,-6.17783 1.56738,-2.03384 2.96121,-4.19325 4.31795,-6.39871 1.59466,-2.72676 3.63196,-5.05331 5.62326,-7.42161 2.79459,-3.47662 6.04805,-6.40928 9.30698,-9.33098 7.25154,-6.03546 15.23769,-10.9626 23.27976,-15.59304 4.56794,-2.37808 9.26067,-4.51848 14.08044,-6.19705 5.18315,-1.82014 10.55822,-2.7866 15.95513,-3.41683 5.67681,-0.59049 11.37053,-0.58498 17.05802,-0.2705 5.67732,0.26171 11.32824,1.00734 16.94163,1.95511 5.39622,0.93293 10.59807,2.65885 15.64465,4.91837 4.48729,2.04268 8.71884,4.66882 12.65259,7.79037 3.38435,2.80689 5.72732,6.64144 7.85154,10.60189 1.92697,3.87377 3.04857,8.12332 3.91823,12.4101 0.9303,4.09869 1.48621,8.26298 1.54616,12.48474 -0.0422,4.32075 -0.38625,8.61975 -0.97463,12.88932 -0.67832,4.25115 -1.79903,8.3674 -3.20712,12.38787 -1.68344,4.27313 -3.91865,8.21211 -6.46417,11.91809 -3.08695,4.43057 -6.85578,8.16928 -10.65678,11.83296 -4.38972,4.32173 -9.34515,7.83017 -14.33905,11.23072 -9.1914,6.34226 -18.70919,12.04194 -28.55644,17.02453 -6.80071,3.27491 -13.76055,6.11719 -20.68491,9.05305 -7.03049,2.85084 -14.15478,5.42751 -21.29727,7.91844 -6.45809,2.33447 -13.10961,3.92656 -19.74734,5.49836 -4.96245,1.14256 -9.95046,2.12935 -14.94327,3.09368 -3.08145,0.69054 -6.13719,0.86746 -9.25455,0.52919 -1.71145,-0.15921 -2.74358,-0.17545 -3.18017,-2.17974 0.0695,-0.34987 0.10099,-0.69171 0.31783,-0.98615 0.11843,-0.16081 0.2736,-0.29009 0.43649,-0.3937 3.95322,-2.51444 7.92452,-4.99459 11.90514,-7.4562 0.64801,-0.40074 1.06698,-0.48474 1.79267,-0.72377 3.0706,-1.31398 6.20002,-2.40798 9.33753,-3.51429 4.98727,-1.52706 10.04415,-2.71903 15.14147,-3.70006 6.45266,-1.23035 12.94927,-2.18318 19.4498,-3.05292 7.036,-0.88566 14.12037,-1.07143 21.19455,-1.19459 7.09328,-0.17589 14.17953,0.42144 21.22656,1.25526 6.6272,1.03671 13.22658,2.29937 19.75924,3.90852 6.02559,1.28446 11.72336,3.66506 17.31944,6.36512 4.99264,2.4571 9.5883,5.64485 13.99571,9.17925 4.17943,3.3272 7.78013,7.35732 11.05798,11.71309 3.04374,4.12739 5.14918,8.92758 7.08716,13.75943 2.0488,4.84951 3.23862,10.05527 4.28358,15.25604 0.97109,5.33236 1.18522,10.77144 1.30347,16.19231 0.009,5.48553 -0.61324,10.93967 -1.51058,16.32605 -0.85388,5.66256 -2.17976,11.19257 -3.93865,16.59065 -1.87184,5.47134 -4.11948,10.78603 -6.67643,15.90875 -2.75191,5.09568 -5.63736,10.10111 -8.98126,14.75292 -3.47762,4.61607 -7.42125,8.7533 -11.51035,12.70166 -4.3077,4.0909 -9.03693,7.57433 -13.87716,10.84479 -8.61635,6.15863 -17.71399,11.13149 -27.27549,15.14646 -6.05871,2.33327 -12.17938,4.5021 -18.42147,6.1586 -6.49111,1.74053 -13.11539,2.80527 -19.73515,3.752 -7.13746,0.97245 -14.29727,1.57752 -21.48078,1.91684 -7.39245,0.34201 -14.78869,-0.1769 -22.16201,-0.72213 -7.07917,-0.66989 -14.10046,-1.98952 -21.07945,-3.43394 -6.42238,-1.38641 -12.7502,-3.23603 -19.03377,-5.23645 -5.35154,-1.6854 -10.60529,-3.70413 -15.8241,-5.82621 -4.12121,-1.64405 -8.13509,-3.572 -11.98285,-5.88106 -2.61232,-1.71222 -5.2986,-3.37433 -7.68977,-5.45198 -1.43224,-1.07439 -2.71352,-2.28459 -3.78684,-3.77881 -0.68275,-0.85427 -1.08761,-2.05187 -0.6468,-3.13657 0.0794,-0.17091 0.13982,-0.35416 0.23811,-0.51274 0.29403,-0.47438 0.45879,-0.55272 0.91626,-0.84427 3.45631,-2.20265 8.24678,-6.68219 13.03727,-7.86501 0.70505,-0.45506 0.36615,-0.22791 1.01788,-0.67936 0,0 -10.24065,9.05076 -10.24065,9.05076 l 0,0 c -0.7079,0.33835 -0.33221,0.17818 -1.13035,0.4711 -6.58901,3.28418 15.10165,-8.73914 8.19758,-5.53652 -0.067,0.10377 -0.13399,0.20754 -0.20099,0.3113 -0.0877,0.0132 -0.19936,-0.028 -0.26321,0.0394 -0.32691,0.34545 0.16025,1.10567 0.33488,1.30311 1.01521,1.38468 2.1899,2.54049 3.50611,3.58459 2.31869,2.02128 4.87261,3.72453 7.42734,5.3556 3.76021,2.28651 7.68706,4.1967 11.72126,5.82496 5.16639,2.11137 10.35601,4.15852 15.65712,5.83082 6.23221,2.00118 12.51304,3.83551 18.8928,5.18238 6.92611,1.43057 13.8971,2.73475 20.92614,3.35491 7.34929,0.53316 14.72364,0.96156 22.08907,0.59353 7.18002,-0.37644 14.33517,-1.05637 21.46722,-2.05417 6.60709,-1.00212 13.21547,-2.11 19.68943,-3.90455 6.21108,-1.76415 12.33821,-3.89056 18.36038,-6.32224 3.84127,-1.65863 7.60013,-3.45193 11.29868,-5.46833 0.89457,-0.4877 3.51936,-2.07016 2.67037,-1.49226 -2.67851,1.82326 -5.44343,3.48835 -8.16515,5.23254 4.83406,-3.21877 9.58917,-6.59749 13.9174,-10.61433 4.10713,-3.87728 8.05428,-7.95894 11.5903,-12.47668 3.42039,-4.52907 6.24468,-9.51552 9.04712,-14.52269 2.58616,-5.0528 4.86823,-10.29762 6.75704,-15.71407 1.82378,-5.30623 3.14819,-10.76573 3.98993,-16.36822 0.972,-5.28789 1.52242,-10.66118 1.6277,-16.05771 -0.1177,-5.33495 -0.27511,-10.69585 -1.20535,-15.94957 -1.00335,-5.11794 -2.17133,-10.23021 -4.16964,-15.0047 -1.90248,-4.71036 -3.93184,-9.40339 -6.89076,-13.44388 -3.20519,-4.26394 -6.76216,-8.19001 -10.84855,-11.44376 -4.35229,-3.44589 -8.89778,-6.54691 -13.80376,-8.96364 -5.52735,-2.65605 -11.16855,-4.94875 -17.11756,-6.19634 -6.48247,-1.59306 -13.03149,-2.86623 -19.61615,-3.82888 -7.01257,-0.81198 -14.06222,-1.34398 -21.11817,-1.13459 -7.0554,0.14548 -14.12072,0.37125 -21.1316,1.32396 -6.52782,0.91902 -13.05403,1.89515 -19.52686,3.21119 -5.12948,1.06116 -10.22601,2.31713 -15.21954,4.0016 -3.20285,1.16217 -6.3774,2.393 -9.52336,3.73047 -8.40991,3.92459 14.36339,-8.18736 7.72831,-5.48455 -1.03721,-0.80316 1.29494,0.35816 1.85071,0.12391 2.9634,0.31335 5.89544,-0.0771 8.81938,-0.65085 4.90775,-0.9272 9.81885,-1.82801 14.69358,-2.95326 6.58114,-1.53791 13.15349,-3.18887 19.55175,-5.50134 7.12321,-2.51172 14.24003,-5.06965 21.24088,-7.97076 6.93715,-2.93173 13.89646,-5.81443 20.67923,-9.1637 3.16425,-1.62824 6.29258,-3.28865 9.37669,-5.09466 0.97562,-0.5713 3.86033,-2.36689 2.9198,-1.7284 -1.642,1.11469 -12.81395,8.30875 -5.01173,3.18634 4.96652,-3.32978 9.92094,-6.74168 14.30776,-10.97029 3.76076,-3.59625 7.53882,-7.20952 10.64018,-11.52973 2.56038,-3.57788 4.78234,-7.38745 6.53695,-11.52293 1.44346,-3.93079 2.60744,-7.94975 3.33855,-12.12004 0.64684,-4.19235 0.94462,-8.42698 1.05628,-12.67673 0.0236,-4.12918 -0.54839,-8.21513 -1.41989,-12.22877 -0.78615,-4.16023 -1.8869,-8.25498 -3.71108,-12.02258 -2.0315,-3.7945 -4.26417,-7.47362 -7.52399,-10.13994 -3.8667,-3.03532 -7.99573,-5.60219 -12.40524,-7.57199 -4.97681,-2.19615 -10.12767,-3.80394 -15.44084,-4.67779 -5.58234,-0.89998 -11.19328,-1.646 -16.83657,-1.8612 -5.65966,-0.24593 -11.32648,-0.19916 -16.9658,0.46509 -5.37219,0.70855 -10.70778,1.78502 -15.84888,3.68595 -4.77061,1.80021 -9.46844,3.88195 -13.96643,6.39833 -4.37111,2.59138 -5.72832,3.42945 6.467,-4.24373 0.71729,-0.4513 -1.41349,0.94213 -2.11296,1.42608 -2.05972,1.42509 -4.09969,2.89402 -6.04385,4.50534 -3.18929,2.88518 -6.45216,5.66495 -9.21993,9.06157 -1.89128,2.37418 -4.00307,4.53645 -5.57495,7.1989 -1.39014,2.17893 -2.61209,4.48335 -4.26882,6.44381 -1.32771,1.91488 -2.85509,3.7236 -3.68889,5.9779 0,0 -11.99576,5.84688 -11.99576,5.84688 z"
       inkscape:connector-curvature="0" />
    <path
       style="fill:#000080;stroke:#000080;stroke-width:2.35499191;stroke-miterlimit:4;stroke-dasharray:none"
       id="path3175"
       d="m 135.95524,489.9967 c 1.62039,-0.49591 3.16664,-1.21847 4.67424,-2.01475 0,0 -3.56466,3.03018 -3.56466,3.03018 l 0,0 c -1.54615,0.77283 -3.11713,1.50941 -4.78093,1.94734 0,0 3.67135,-2.96277 3.67135,-2.96277 z"
       inkscape:connector-curvature="0" />
    <path
       style="fill:#000080;stroke:#000080;stroke-width:2.35499191;stroke-miterlimit:4;stroke-dasharray:none"
       id="path3177"
       d="m 154.32018,487.16081 c 1.73575,-1.12234 3.47825,-2.24025 5.09747,-3.54897 0,0 4.24536,-1.81247 4.24536,-1.81247 l 0,0 c -1.56907,1.3729 -3.34076,2.44369 -5.05323,3.59758 0,0 -4.2896,1.76386 -4.2896,1.76386 z"
       inkscape:connector-curvature="0" />
    <path
       style="fill:#000080;stroke:#000080;stroke-width:2.35499191;stroke-miterlimit:4;stroke-dasharray:none"
       id="path3179"
       d="m 140.4498,490.00217 c 0.42482,1.33721 1.05446,2.59689 1.44595,3.94513 0.20304,0.60651 0.0886,1.16821 -0.31724,1.62704 -2.40413,1.3147 -3.72197,3.95156 -5.05994,1.83313 0,0 3.99913,-2.50251 3.99913,-2.50251 l 0,0 c 0.024,0.0374 0.16449,0.26815 0.21239,0.29637 0.0967,0.057 0.21658,-0.23892 0.29644,-0.15763 -1.2565,0.78058 -2.51299,1.56116 -3.76948,2.34174 0.44924,-0.19074 0.77591,-0.53494 0.58845,-1.07934 -0.35671,-1.34431 -0.95212,-2.6078 -1.41381,-3.91238 0,0 4.01811,-2.39155 4.01811,-2.39155 z"
       inkscape:connector-curvature="0" />
    <path
       style="fill:#000080;stroke:#000080;stroke-width:2.35499191;stroke-miterlimit:4;stroke-dasharray:none"
       id="path3181"
       d="m 162.79522,485.04037 c 0.50606,1.22384 0.71552,2.55093 0.80277,3.87672 0.0419,0.35576 -6.5e-4,0.67379 -0.0739,1.01898 -0.19418,0.2574 -0.42871,0.61233 -0.74763,0.69289 0.11652,1.7601 -4.20494,4.27928 -4.28587,2.23197 -0.0105,-0.26185 6.5e-4,-0.52409 9.7e-4,-0.78628 -0.0506,-0.46775 0.23064,-0.77375 0.49522,-1.10251 0.27262,-0.26615 0.36951,-0.44502 0.47808,-0.82295 0.2379,-0.39816 0.66956,-0.54669 0.8827,-0.96236 0.1209,-0.36812 0.0471,-0.76196 0.0971,-1.14469 0.20819,-0.24922 0.4512,-0.63399 0.54393,-0.86514 -0.28188,-0.23267 -0.40824,-0.70672 -0.52997,-1.0621 -0.0555,-0.35558 -0.17935,-0.52845 -0.43214,-0.7679 -0.13856,-0.13167 -0.29239,-0.23962 -0.45479,-0.33211 -0.004,-5e-5 -0.009,-10e-5 -0.0126,-1.6e-4 0,0 3.89355,-2.71639 3.89355,-2.71639 l 0,0 c 0.008,0.007 0.0156,0.0134 0.0234,0.0201 0.17144,0.13648 0.34058,0.27656 0.49597,0.43384 0.27014,0.28423 0.51805,0.56181 0.55244,0.97128 0.10178,0.34097 0.20508,0.69849 0.46341,0.9433 0.27618,0.4612 0.22104,1.13049 -0.29932,1.38022 -0.34068,0.0777 -0.0526,0.72363 -0.13985,1.04547 -0.1169,0.5599 -0.33359,0.87359 -0.82662,1.10004 -0.36901,0.16153 -0.0319,0.67363 -0.46054,0.86472 -0.223,0.25064 -0.59822,0.48893 -0.63087,0.77353 -0.003,0.25959 0.002,0.51924 -0.009,0.77844 -0.0203,1.6087 -4.96341,4.06082 -4.06193,2.08594 0.0144,-0.44807 0.3888,-0.52343 0.70999,-0.79145 0.26306,-0.0746 0.18947,-0.45162 0.2145,-0.72851 -0.0205,-1.28083 -0.18443,-2.57722 -0.70754,-3.74337 0,0 4.01811,-2.39155 4.01811,-2.39155 z"
       inkscape:connector-curvature="0" />
    <path
       style="fill:#000080;stroke:#000080;stroke-width:2.35499191;stroke-miterlimit:4;stroke-dasharray:none"
       id="path3189"
       d="m 139.75552,515.27815 c 1.69317,0.69653 3.44221,1.20589 5.23709,1.48471 1.31657,0.25827 2.54614,0.20015 3.83274,-0.1231 1.33161,-0.24578 2.5292,-0.90852 3.83172,-1.26342 1.25031,-0.65815 2.58779,-1.02538 3.87986,-1.57168 1.46536,-0.42846 2.74783,-1.31077 4.09521,-2.02831 -0.3768,0.43105 1.57334,-0.83987 1.18996,-0.60958 -1.16395,0.69918 -4.62668,2.85047 -3.48214,2.11581 1.45011,-0.9308 2.92711,-1.81327 4.39902,-2.70434 0.1332,-0.0807 0.54793,-0.29147 0.41514,-0.21008 -1.19849,0.73462 -2.40887,1.44693 -3.6133,2.17039 0.67782,-0.525 1.28374,-1.1471 1.82604,-1.82571 0,0 4.24078,-1.92651 4.24078,-1.92651 l 0,0 c -0.52167,0.71362 -1.09307,1.39421 -1.78101,1.92 -1.42558,0.91133 -2.84708,1.82996 -4.27675,2.734 -3.65427,2.31078 13.44215,-8.25144 -1.30799,0.80291 -0.3303,0.20275 -0.85021,0.43159 -1.19518,0.59194 -1.3468,0.72972 -2.65951,1.54015 -4.12089,1.99402 -1.29327,0.54539 -2.63437,0.93757 -3.91062,1.5323 -1.28303,0.41594 -2.51397,1.00741 -3.84702,1.24102 -1.31198,0.28479 -2.60546,0.2174 -3.92454,-0.0309 -1.81726,-0.32797 -3.58087,-0.88985 -5.31156,-1.56332 0,0 3.82344,-2.73014 3.82344,-2.73014 z"
       inkscape:connector-curvature="0" />
    <path
       style="fill:#000080;stroke:#000080;stroke-width:2.35499191;stroke-miterlimit:4;stroke-dasharray:none"
       id="path3195"
       d="m 138.789,476.43028 c -1.79264,0.30629 -3.42694,1.14228 -5.05893,1.94595 -0.96979,0.48534 -0.77273,0.39716 0.55583,-0.34068 0,0 -1.71345,0.7232 -1.71345,0.7232 l 0,0 c 2.19614,-1.42979 1.30105,-0.95791 2.59333,-1.59845 1.64129,-0.80158 3.29314,-1.60608 5.09177,-1.91514 0,0 -1.46855,1.18512 -1.46855,1.18512 z"
       inkscape:connector-curvature="0" />
    <path
       style="fill:#000080;stroke:#000080;stroke-width:2.35499191;stroke-miterlimit:4;stroke-dasharray:none"
       id="path3197"
       d="m 155.34813,468.19538 c 1.75122,-0.0394 3.46883,-0.0438 5.19213,0.30026 0.24577,0.056 0.49155,0.11202 0.73733,0.16803 0,0 -1.50728,1.11643 -1.50728,1.11643 l 0,0 c -0.24381,-0.0552 -0.4876,-0.11042 -0.7314,-0.16563 -1.71873,-0.32882 -3.43827,-0.30201 -5.1813,-0.26486 0,0 1.49052,-1.15423 1.49052,-1.15423 z"
       inkscape:connector-curvature="0" />
    <path
       style="fill:#0000ff;stroke:#0000ff;stroke-width:2.27556586;stroke-miterlimit:4;stroke-dasharray:none"
       id="path3217"
       d="m 838.35913,432.68683 c 2.42586,0.0603 4.85354,-0.0785 7.27201,0.15547 2.62599,0.31569 5.24849,0.55987 7.85427,1.03912 0.9552,0.19489 1.9158,0.35417 2.87664,0.51073 0,0 -3.56362,2.75544 -3.56362,2.75544 l 0,0 c -0.94993,-0.17209 -1.90001,-0.34369 -2.84618,-0.53961 -2.59478,-0.46903 -5.21156,-0.69898 -7.82496,-1.01139 -2.4339,-0.17891 -4.87465,-0.0805 -7.31289,-0.0775 0,0 3.54473,-2.83222 3.54473,-2.83222 z"
       inkscape:connector-curvature="0" />
    <path
       style="fill:#0000ff;stroke:#0000ff;stroke-width:2.27556586;stroke-miterlimit:4;stroke-dasharray:none"
       id="path3219"
       d="m 842.58718,438.28553 c -1.35667,-0.35696 -2.77526,-0.12118 -4.14902,0.0112 -0.75104,0.24697 -1.40827,0.81816 -2.17187,1.00027 6.57218,-3.93139 3.7821,-2.78318 2.75368,-1.40716 -0.14083,0.45272 -0.10007,0.93271 -0.1874,1.39604 -0.31205,0.58897 -0.54781,1.01289 -0.34868,1.68152 0.18729,0.45827 0.28039,0.95612 0.37237,1.44623 0.093,0.3472 0.39184,0.62455 0.61808,0.88274 0.15311,0.40429 0.17758,-0.17725 0.13543,-0.15449 -6.0601,3.27245 -4.50162,3.06568 -3.29233,2.00477 12.56427,-8.0131 -2.72897,1.89488 1.46157,-1.00037 12.82718,-8.77822 -2.32576,2.47266 1.3801,-0.98368 12.55175,-8.64199 -2.48103,2.63018 1.38112,-1.02084 0.50598,-0.67514 0.91904,-1.40791 1.22947,-2.21189 0.30829,-0.69401 0.78089,-1.20153 0.64807,-2.00388 -0.10544,-0.55622 -0.19404,-0.93851 -0.61995,-1.27642 -0.38238,-0.20854 -0.88408,-0.15877 -1.30757,-0.16357 -0.6082,-0.003 -1.21636,0.006 -1.82453,0.0104 -1.34817,1.01556 -4.39437,2.79519 2.27455,-1.39624 -0.50151,0.39479 -0.94873,0.86276 -1.38841,1.33613 -0.46963,0.53048 -0.55428,1.25718 -0.62381,1.96046 -0.0466,0.76493 -0.0388,1.53234 -0.034,2.29852 0.0244,0.47906 -0.14578,0.68927 0.27728,0.76476 0.0709,0.008 0.26074,0.0349 0.31304,0.004 0.0722,-0.0423 0.23646,-0.24294 0.16456,-0.20009 -5.89727,3.51464 -4.21503,2.95966 -2.98533,1.67813 0.65542,-0.82835 1.18781,-1.75668 1.76631,-2.64808 0.45789,-0.87203 1.08156,-1.6052 1.5286,-2.48385 0.2244,-0.38579 0.30898,-0.79526 0.3366,-1.2447 -0.17831,-1.68423 5.37388,-3.62792 3.34312,-1.69886 -0.7302,0.69733 -1.33517,1.51949 -1.93514,2.34813 -0.47422,0.68747 -0.92661,1.3741 -1.07125,2.23543 0.008,0.002 0.0159,0.004 0.0239,0.006 0,0 -3.8071,2.45366 -3.8071,2.45366 l 0,0 c -0.0578,-0.10618 -0.11557,-0.21237 -0.17336,-0.31856 0.0884,-0.9509 0.47199,-1.72518 1.00598,-2.46996 0.55702,-0.87339 1.18358,-1.68287 1.88896,-2.41986 1.11001,-1.23292 4.83007,-4.61405 4.66829,-2.31727 -0.018,0.50112 -0.02,1.0051 -0.26707,1.44488 -0.43505,0.92352 -1.04081,1.66647 -1.51994,2.55017 -0.59723,0.89184 -1.15135,1.81845 -1.72855,2.71521 -1.35431,1.54841 -3.21077,3.69738 -5.20818,3.08476 -0.52858,-0.28601 -0.58948,-0.68034 -0.53898,-1.28647 -0.002,-0.77863 -0.0121,-1.55796 0.0183,-2.33607 0.0391,-0.78539 0.13436,-1.57633 0.49015,-2.27234 0.44305,-0.48207 0.87875,-0.97296 1.36513,-1.40352 1.59906,-1.04041 3.47339,-2.59937 5.37735,-3.23384 0.61102,-0.003 1.22207,-0.01 1.83307,0.003 0.51201,0.0251 1.05597,0.0477 1.47164,0.42053 0.46158,0.4422 0.65256,0.91541 0.76799,1.56733 0.20147,0.95156 -3e-4,1.49958 -0.53786,2.26551 -0.30469,0.84797 -0.67399,1.62097 -1.1705,2.35225 -1.29839,2.20223 -9.66822,5.95932 -1.32475,1.1618 -0.32245,0.13955 -0.37959,0.37498 -0.66136,0.55919 -1.33688,0.87396 -2.66742,1.76372 -4.04682,2.55375 -1.20839,0.69208 2.35582,-1.50591 3.53331,-2.25965 0.0683,-0.0438 -0.13719,0.0864 -0.20578,0.12963 -2.55361,1.65244 -9.13628,5.90437 -1.48083,0.91985 -1.27213,1.32611 -3.30213,4.05157 -4.70236,2.49768 -0.27141,-0.33023 -0.62937,-0.69282 -0.74345,-1.12144 -0.0698,-0.47246 -0.14778,-0.95333 -0.33133,-1.39028 -0.25463,-0.79544 -0.25689,-1.31334 0.19028,-2.02083 0.31157,-0.28767 0.0814,-0.91739 0.20863,-1.33763 0.23036,-2.11081 5.451,-2.11495 4.71904,-3.61664 0.71962,-0.34669 1.42812,-0.75788 2.21228,-0.89547 1.40646,-0.11631 2.83571,-0.28053 4.22337,0.0953 0,0 -3.59411,2.75413 -3.59411,2.75413 z"
       inkscape:connector-curvature="0" />
    <path
       style="fill:#0000ff;stroke:#0000ff;stroke-width:2.27556586;stroke-miterlimit:4;stroke-dasharray:none"
       id="path3221"
       d="m 880.87231,433.66085 c 1.63537,0.35042 3.27914,0.64682 4.93749,0.82554 1.6019,0.29002 3.12796,0.523 4.75753,0.41329 1.18311,-0.16348 2.2656,-0.23319 3.37821,0.27838 0.6625,0.19738 1.23036,0.34718 1.40183,1.15656 -0.35664,1.75224 -3.52765,4.17426 -4.52196,2.47486 0,0 3.81108,-2.44698 3.81108,-2.44698 l 0,0 c 0.86011,1.465 -5.40338,3.22014 -3.22507,2.16646 0.24685,-0.15666 -0.96736,-0.6568 -1.11634,-0.65603 -1.06178,-0.41741 -2.14303,-0.21206 -3.24613,-0.13306 -1.63001,0.0661 -3.18139,-0.25513 -4.79088,-0.47737 -1.65154,-0.20161 -3.28071,-0.56023 -4.93048,-0.76944 0,0 3.54472,-2.83221 3.54472,-2.83221 z"
       inkscape:connector-curvature="0" />
    <path
       style="fill:#0000ff;stroke:#0000ff;stroke-width:2.27556586;stroke-miterlimit:4;stroke-dasharray:none"
       id="path3223"
       d="m 883.80707,436.53754 c -1.14563,1.44134 -2.062,3.06369 -3.02989,4.64705 -0.60919,0.97189 -0.9464,2.04571 -1.08894,3.20492 0.0506,0.50017 -0.32962,1.50265 0.11161,1.85389 0.005,0.3307 0.61007,-0.11491 0.59308,-0.10482 -3.22906,1.9163 -4.71545,3.15645 -3.2768,1.97694 0.75971,-0.81109 1.27159,-1.85937 1.89714,-2.79522 0.82681,-1.10641 1.55088,-2.3047 2.38781,-3.40097 0.48209,-0.81394 1.21388,-1.36861 1.78644,-2.08561 0.18063,-0.23654 0.32117,-0.50338 0.46522,-0.76683 0.21984,0.53418 -0.40443,0.34352 -0.74938,0.34689 -0.59596,0.007 -1.19198,0.003 -1.78798,0.007 -3.89638,2.35298 4.77451,-3.9577 1.68275,-0.98239 -0.7624,0.69237 -1.07059,1.67094 -1.27232,2.69795 -0.12986,0.69256 -0.11772,1.44425 0.42649,1.91339 0.0788,0.0481 0.1467,0.13567 0.23653,0.14435 0.19152,0.0185 1.61901,-0.81858 0.87117,-0.34615 -4.16919,2.63378 -4.4749,2.86303 -3.09504,1.87913 0.95814,-0.71725 1.44213,-1.77251 1.73586,-2.96716 0.12564,-0.94275 0.42356,-1.99381 0.0339,-2.89628 -0.32851,-0.62936 -0.71544,-0.34844 -1.18954,-0.081 -1.61773,1.00272 2.08875,-1.32527 3.14575,-1.96302 0.12028,-0.0726 -0.2236,0.17512 -0.3311,0.26885 -0.44037,0.38396 -0.77009,0.80807 -1.104,1.30175 -0.63337,0.8919 -1.18139,1.83725 -1.52222,2.90783 -0.003,0.11507 -0.0548,0.34644 0.0518,0.4581 0.11658,0.12209 0.53217,-0.39609 0.38954,-0.31399 -1.15819,0.6666 -2.28191,1.40326 -3.42287,2.10488 0.91412,-0.88767 1.6744,-1.95841 2.38332,-3.0456 0.26772,-0.40968 0.95884,-1.45957 0.33507,-1.87001 -0.65742,-0.30705 -1.27959,-0.20783 -1.8888,0.14865 -1.34444,0.77442 -3.21499,1.81239 2.89342,-1.83963 0.0973,-0.0582 -0.17948,0.14438 -0.2583,0.22999 -0.22568,0.24512 -0.23511,0.31834 -0.38145,0.61956 -0.32441,0.85488 -0.27029,1.66399 0.46866,2.18048 0.16427,0.11048 0.32855,0.22096 0.49282,0.33144 0,0 -3.67674,2.60892 -3.67674,2.60892 l 0,0 c -0.1737,-0.11895 -0.34739,-0.23789 -0.52109,-0.35684 -0.81251,-0.72434 -1.06181,-1.64456 -0.76364,-2.75629 0.82447,-2.2928 3.2363,-2.99232 5.19926,-4.00963 0.73057,-0.24478 1.53846,-0.20178 2.18042,0.29287 0.63777,0.75956 0.49388,1.71898 -0.0679,2.50354 -0.70163,1.1157 -1.46157,2.18742 -2.32412,3.15633 -0.28343,0.18817 -4.74081,4.78567 -5.05821,1.6239 0.26128,-1.13654 0.82371,-2.13652 1.4737,-3.05597 1.3624,-2.22709 3.40508,-3.52021 5.76547,-4.51288 0.68237,-0.2149 1.21327,-0.0186 1.55795,0.68305 0.4416,1.02645 0.23901,2.11081 0.0886,3.20183 -0.26981,1.25236 -0.65227,2.43705 -1.60051,3.27231 -1.42526,1.22282 -3.89755,3.9038 -5.84043,2.6401 -0.56902,-0.64551 -0.80185,-1.4567 -0.62989,-2.34439 0.15158,-1.07353 0.42483,-2.21013 1.16236,-2.97854 1.60332,-1.78319 3.71186,-3.16325 5.93344,-3.69548 0.59746,6.7e-4 1.19485,-0.006 1.79227,-0.0125 0.51551,-0.002 0.88932,-0.0881 1.19772,0.45569 -0.0909,0.33175 -0.25913,0.62738 -0.43445,0.91401 -0.52675,0.80462 -1.31764,1.26073 -1.79107,2.12792 -0.92709,0.99405 -1.54614,2.29533 -2.40865,3.35568 -0.64806,0.93683 -1.19536,1.95467 -1.84572,2.87498 -1.27279,1.49427 -3.4354,3.83306 -5.14164,2.49496 -0.52659,-0.6433 -0.31429,-1.4461 -0.29123,-2.25763 0.12702,-1.22488 0.4007,-2.37729 1.02504,-3.42381 0.98358,-1.56922 1.86817,-3.2131 3.00545,-4.65939 0,0 4.0238,-1.90692 4.0238,-1.90692 z"
       inkscape:connector-curvature="0" />
    <path
       style="fill:#ff00ff;stroke:#ff00ff;stroke-width:2.27556586;stroke-miterlimit:4;stroke-dasharray:none"
       id="path3233"
       d="m 962.9298,527.14367 c -0.69368,2.17757 -1.66919,4.22002 -2.87891,6.10105 -2.79302,4.21721 -6.92141,5.78223 -11.13125,8.42498 -1.38667,0.43543 -2.84386,0.46695 -4.27625,0.48074 -1.38881,0.004 -2.7775,-0.0141 -4.16624,-0.0255 -1.43862,10e-4 -2.87723,-0.007 -4.31584,-0.0115 -1.75556,0.13144 -3.45602,-0.37865 -5.18142,-0.65057 -1.82429,-0.50791 -3.63643,-1.0144 -5.37189,-1.82442 -1.73296,-0.65183 -3.19102,-1.8842 -4.72224,-2.94462 -1.65685,-1.17158 -3.10378,-2.65981 -4.56939,-4.09996 -1.38238,-1.65787 -2.83139,-3.18617 -4.03236,-5.01141 -1.30491,-1.93422 -2.42924,-4.00983 -3.4489,-6.13896 -0.96242,-1.93261 -1.90384,-3.87247 -2.5226,-5.97304 -0.63032,-1.70538 -0.98953,-3.49325 -1.41244,-5.26456 -0.45236,-1.66456 -0.73592,-3.37511 -0.88661,-5.10238 -0.11476,-1.36877 -0.12309,-2.74551 -0.12058,-4.11909 0.12802,-1.27965 0.46355,-2.53223 0.76715,-3.77475 0.38756,-1.19294 0.79125,-2.3757 1.24394,-3.54047 0.36655,-1.09803 0.80435,-2.18578 1.39245,-3.1632 0.55294,-0.75637 1.30037,-1.30272 1.94941,-1.95053 2.62709,-2.8929 6.54841,-4.61107 9.54562,-6.48641 -15.29699,11.05763 -3.2869,-0.31173 2.41137,-1.04099 0.94688,0.0303 1.70735,-0.56141 2.61488,-0.79231 0.99242,-0.0841 1.85993,-0.47515 2.79493,-0.81842 1.29156,-0.48194 2.50117,-0.15093 3.78383,0.12775 1.41427,0.1149 2.74197,0.58713 4.11424,0.93319 1.69918,0.65145 3.42561,1.17736 5.07624,1.97444 1.80944,0.83667 3.59409,1.75507 5.33187,2.76093 1.85989,0.9623 3.6428,2.12362 5.34031,3.3979 1.70827,1.04871 3.10127,2.58336 4.47787,4.08779 1.27972,1.27435 2.34451,2.73704 3.38761,4.23993 1.00788,1.43494 1.85072,2.99923 2.73545,4.52698 0.92284,1.58516 1.75815,3.2249 2.65244,4.82921 1.04976,1.57132 1.58727,3.42348 2.16193,5.24272 0.59809,1.94502 0.77722,3.98644 0.85684,6.02442 -0.14276,2.24015 -0.37672,4.48935 -0.73272,6.70206 -0.35433,2.0188 -0.77949,4.01482 -1.67397,5.83108 -2.45842,4.24333 -7.25643,6.00065 -11.01814,8.35166 -1.72493,0.8581 -2.60883,1.28306 -4.53294,1.16639 -1.78481,-0.1219 -3.49081,-0.83955 -5.03146,-1.809 -1.55081,-0.86865 -2.38745,-2.26256 -2.9032,-4.03593 -0.78067,-2.01275 -0.85133,-4.0626 -0.75269,-6.21077 0.15579,-2.36632 1.01505,-4.48022 1.99436,-6.55262 0.92561,-1.72498 2.10778,-3.23602 3.37415,-4.66371 3.27977,-3.01979 7.24665,-4.95802 11.00852,-7.12389 1.02724,-0.68404 2.22968,-0.86134 3.4062,-0.94853 1.13255,-0.0871 2.26883,-0.0677 3.40326,-0.0579 1.14266,-0.003 2.28533,0.009 3.42799,0.005 1.13873,-0.0837 2.33953,0.21476 3.43248,-0.18466 0.47672,-0.21396 1.03265,-0.26496 1.49461,-0.52358 0.1393,-0.078 0.52194,-0.3777 0.38591,-0.293 -6.38196,3.97336 -9.52362,6.12406 -6.69255,4.19307 0.93413,-0.66236 1.41803,-1.74881 1.8874,-2.81736 0.55707,-1.57548 0.60338,-3.28444 0.6624,-4.95279 0.0451,-1.93744 0.0339,-3.8758 0.0302,-5.81367 -0.0231,-2.53763 -0.35325,-5.07857 -0.68659,-7.58888 -0.0759,-0.49344 -0.15184,-0.98687 -0.22775,-1.48031 0,0 7.60825,-4.44247 7.60825,-4.44247 l 0,0 c 0.0774,0.49664 0.15475,0.99327 0.23213,1.48991 0.39383,2.53331 0.71012,5.11279 0.82434,7.67649 0.004,1.94662 0.0148,3.89344 -0.0118,5.83992 -0.0394,1.75607 -0.0704,3.53585 -0.49067,5.24232 -0.36627,1.16251 -0.89651,2.41965 -1.6846,3.28494 -2.90773,2.86722 -6.48631,5.12996 -10.3177,5.98754 -1.1767,0.0817 -2.35599,0.0296 -3.53446,0.0438 -1.13784,-0.009 -2.27573,-0.005 -3.41358,-0.0151 -1.11763,0.009 -2.2385,0.009 -3.35062,0.14716 -1.14057,0.19551 -2.21439,0.5626 -3.21995,1.20192 -2.80876,1.36504 -6.01194,3.68192 5.70683,-3.82886 2.08917,-1.33899 -3.74602,2.64335 -1.8178,1.31865 -1.3609,1.28258 -2.46053,2.8199 -3.52346,4.4009 -0.99968,1.94328 -1.90054,3.92753 -2.15678,6.17354 -0.12021,2.04614 -0.14759,3.97473 0.64984,5.88716 0.41863,1.58416 1.17516,2.659 2.54629,3.40359 1.49531,0.83904 3.09249,1.44525 4.79356,1.41692 1.54755,-0.0835 2.89677,-0.78898 4.28283,-1.51168 -13.016,8.38933 -5.82308,4.57553 -3.74361,1.49566 1.03919,-1.66587 1.46797,-3.56988 1.8169,-5.5373 0.44163,-2.12855 0.55225,-4.33586 0.83178,-6.49576 -0.0845,-1.94624 -0.19838,-3.90667 -0.75473,-5.77262 -0.55023,-1.75641 -1.06235,-3.54732 -2.08241,-5.05756 -0.88084,-1.60596 -1.71114,-3.24426 -2.64795,-4.81192 -0.86546,-1.51146 -1.69761,-3.05399 -2.70195,-4.46069 -0.9946,-1.48377 -2.07442,-2.87469 -3.30588,-4.13076 -1.34296,-1.46048 -2.70274,-2.92339 -4.36285,-3.95087 -1.69851,-1.22154 -3.459,-2.34891 -5.29652,-3.2993 -1.73912,-0.96025 -3.49532,-1.89138 -5.30061,-2.6924 -1.64227,-0.71301 -3.3299,-1.27879 -5.02302,-1.82602 -1.35853,-0.36531 -2.71707,-0.67954 -4.10502,-0.88312 -1.22002,-0.23388 -2.36947,-0.2483 -3.54312,0.27706 -0.93098,0.3322 -1.87216,0.53313 -2.81871,0.79957 -0.87419,0.34725 -1.7331,0.62984 -2.66229,0.73295 -0.42442,0.14402 -0.7998,0.29465 -1.18946,0.5319 -0.1214,0.0739 -0.48066,0.30516 -0.36072,0.22844 8.98379,-5.7466 10.31615,-6.58312 -0.75512,0.4523 13.37983,-8.55134 7.9266,-5.4862 5.45347,-3.22585 -0.57075,0.72421 -1.25815,1.36142 -1.99682,1.85548 -0.69451,0.83607 -1.15259,1.86191 -1.51549,2.92072 -0.3862,1.18558 -0.90734,2.30656 -1.25074,3.51262 -0.46331,1.08421 -0.47927,2.36592 -0.90935,3.48183 0.006,1.35159 -0.006,2.7042 0.071,4.05397 0.12028,1.67602 0.33885,3.34505 0.80239,4.95297 0.46143,1.74745 0.70517,3.56737 1.37536,5.25039 0.56655,2.06286 1.49766,3.9479 2.43207,5.83476 0.98423,2.09468 2.0853,4.13286 3.37471,6.01913 1.18178,1.74908 2.60951,3.22662 3.94967,4.82773 1.44856,1.39418 2.85221,2.86876 4.50756,3.96706 1.47909,1.05358 2.9505,2.15438 4.62814,2.79867 1.71077,0.70891 3.47413,1.23928 5.26682,1.63425 1.69955,0.29311 3.38866,0.66481 5.12044,0.52386 1.44143,-0.002 2.88295,-0.009 4.32431,0.0101 1.38652,0.004 2.77336,0.023 4.1597,-0.003 1.3754,-0.0595 2.78628,-0.12649 4.04335,-0.81205 -13.31199,8.56031 -5.81926,4.55483 -3.66635,1.33324 1.30737,-1.68233 2.33064,-3.70053 2.90845,-5.82165 0,0 7.94707,-4.04191 7.94707,-4.04191 z"
       inkscape:connector-curvature="0" />
    <path
       style="fill:#0000ff;stroke:#0000ff;stroke-width:2.27556586;stroke-miterlimit:4;stroke-dasharray:none"
       id="path3277"
       d="m 847.29234,412.84029 c -1.13631,-0.94025 -2.29694,-1.84608 -3.5011,-2.67946 -0.81487,-0.65555 -1.43858,-1.10426 -2.46166,-1.06554 -2.50291,1.39427 1.48596,-1.43997 -0.19364,0.20322 0,0 -1.61903,0.72911 -1.61903,0.72911 l 0,0 c 0.90742,-0.95428 2.00632,-1.73492 3.23194,-2.06961 1.02451,0.007 1.69853,0.51569 2.51361,1.16177 1.20184,0.84652 2.36569,1.75495 3.51109,2.69024 0,0 -1.48121,1.03027 -1.48121,1.03027 z"
       inkscape:connector-curvature="0" />
    <path
       style="fill:#0000ff;stroke:#0000ff;stroke-width:2.27556586;stroke-miterlimit:4;stroke-dasharray:none"
       id="path3279"
       d="m 884.2269,422.6907 c 1.53009,-0.31804 3.05504,-0.51631 4.54165,-1.03128 0.87435,-0.38729 1.77087,-0.62846 2.70527,-0.73901 0.71617,-0.11181 1.31813,-0.0953 1.96543,0.25514 0.72114,0.29242 1.41988,0.55076 2.10829,0.92058 0,0 -1.46606,1.06309 -1.46606,1.06309 l 0,0 c -0.68622,-0.36745 -1.40358,-0.59649 -2.10963,-0.91658 -0.62052,-0.30717 -1.23958,-0.26022 -1.90801,-0.1684 -0.92369,0.12365 -1.80564,0.40098 -2.67681,0.76042 -1.49207,0.50139 -3.03158,0.67137 -4.55712,1.01924 0,0 1.39699,-1.1632 1.39699,-1.1632 z"
       inkscape:connector-curvature="0" />
    <path
       style="fill:#0000ff;stroke:#0000ff;stroke-width:2.27556586;stroke-miterlimit:4;stroke-dasharray:none"
       id="path3309"
       d="m 843.30204,472.63017 c 2.23929,-1.84077 4.59221,-3.65672 7.26902,-4.61423 0.78439,-0.27978 1.61546,-0.28139 2.43151,-0.29387 0.63138,0.003 1.26269,0.0139 1.89406,0.017 0.61678,0.0449 1.26618,-0.14129 1.81586,0.19777 0.46627,0.4642 1.06585,0.59196 1.6638,0.71317 0.60615,0.0724 1.21591,0.077 1.82483,0.0758 0.39563,-0.007 0.79128,-0.005 1.18694,-0.01 0.29993,-0.004 0.59986,0 0.89984,-10e-4 0.33036,10e-4 0.66072,0.002 0.9911,-6e-4 0.6043,-0.10103 0.87966,0.60565 1.48753,0.49155 0.96068,-0.13778 1.85582,-0.38871 2.77321,-0.71834 1.03157,-0.31423 2.04054,-0.82272 2.96603,-1.41958 0,0 -3.40406,3.01739 -3.40406,3.01739 l 0,0 c -0.96717,0.54278 -1.96652,1.04094 -3.01834,1.3499 -0.93582,0.33003 -1.90842,0.56027 -2.89417,0.58338 -0.52027,-0.14671 -0.92478,-0.54586 -1.48401,-0.44889 -0.32976,-0.003 -0.65951,-0.002 -0.98925,-4.9e-4 -0.29923,-10e-4 -0.59836,0.003 -0.89756,0.003 -0.3943,-4.2e-4 -0.78859,0.007 -1.18283,-0.001 -0.62665,-0.0126 -1.25622,-0.0258 -1.87389,-0.15616 -0.61209,-0.15966 -1.18823,-0.38233 -1.70837,-0.78305 -0.56524,-0.10947 -1.15128,-0.007 -1.72261,-0.0478 -0.62732,-0.009 -1.25487,-0.0196 -1.88221,-0.009 -0.79145,0.0232 -1.58407,0.0899 -2.33187,0.40243 -1.46875,0.60623 -3.62387,2.11799 2.07073,-1.51438 0.42901,-0.27364 -0.84097,0.58084 -1.23723,0.90883 -0.19244,0.15929 -0.38445,0.31923 -0.57667,0.47885 0,0 -4.07139,1.78059 -4.07139,1.78059 z"
       inkscape:connector-curvature="0" />
    <path
       style="fill:#0000ff;stroke:#0000ff;stroke-width:2.27556586;stroke-miterlimit:4;stroke-dasharray:none"
       id="path3313"
       d="m 856.11916,475.85265 c 1.8091,0.4871 3.61493,0.60472 5.45173,0.33239 1.18197,-0.18858 0.59088,-0.0983 1.77328,-0.271 0,0 -3.48429,2.86274 -3.48429,2.86274 l 0,0 c -1.18153,0.17588 -0.5895,0.0875 -1.7761,0.26515 -1.88538,0.21953 -3.7654,0.0249 -5.60175,-0.50963 0,0 3.63713,-2.67965 3.63713,-2.67965 z"
       inkscape:connector-curvature="0" />
    <path
       style="fill:#000080;stroke:#000080;stroke-width:2.35499191;stroke-miterlimit:4;stroke-dasharray:none"
       id="path3319"
       d="m 161.49816,512.00036 c -0.50877,1.58935 -1.29663,3.0396 -1.98641,4.53992 -0.28444,0.77035 -0.53731,1.52834 -0.97111,2.21919 -0.37364,0.47273 -0.48057,1.08054 -0.76095,1.611 -0.31457,0.44844 -0.53358,0.91611 -0.65993,1.45768 -0.14848,0.51658 -0.4689,0.94675 -0.77551,1.36812 -0.21373,0.29585 -0.47451,0.54906 -0.72171,0.81252 -1.35128,1.37682 -3.1942,2.80457 -5.14899,2.78406 -2.59779,0.31499 5.35563,-3.3812 2.84808,-1.88785 -1.43733,0.85599 -2.87789,1.7058 -4.31683,2.55869 -0.70059,0.2697 -1.44269,0.28199 -2.17792,0.30981 -0.77494,-0.30122 -1.47263,-0.69096 -2.13034,-1.21564 -0.71296,-0.60962 -1.29897,-1.3576 -1.84788,-2.13172 0,0 3.9572,-2.50873 3.9572,-2.50873 l 0,0 c 0.53241,0.73067 1.0895,1.45039 1.79142,2.00396 0.58026,0.44181 1.2385,0.8391 1.95532,0.93861 0.71431,-0.0442 1.42358,-0.12912 2.08489,-0.4433 -9.48108,5.90788 0.82217,-0.3773 1.0965,-0.53018 0.13877,-0.0773 0.33294,0.0716 0.46919,-0.0245 1.66446,-0.27894 3.8609,-2.09045 -2.98316,2.15878 -0.0473,0.0294 0.0783,-0.0817 0.11744,-0.12246 0.24425,-0.25594 0.48894,-0.51153 0.73309,-0.76735 0.31092,-0.36854 0.58245,-0.76931 0.87111,-1.15703 0.11242,-0.58381 0.22159,-1.15629 0.60811,-1.61063 0.33484,-0.53311 0.46678,-1.09345 0.74467,-1.64194 0.47777,-0.6631 0.80146,-1.3425 1.03164,-2.14885 0.63739,-1.51723 1.54984,-2.90023 1.99501,-4.51312 0,0 4.17707,-2.05902 4.17707,-2.05902 z"
       inkscape:connector-curvature="0" />
  </g>
</svg>
